<svg width="21" height="20" viewBox="0 0 21 20" fill="none" xmlns="http://www.w3.org/2000/svg">
<path d="M17.9682 1.95211H15.04V0.488028C15.04 0.358595 14.9886 0.234463 14.8971 0.14294C14.8056 0.0514172 14.6814 0 14.552 0C14.4226 0 14.2984 0.0514172 14.2069 0.14294C14.1154 0.234463 14.064 0.358595 14.064 0.488028V1.95211H7.23157V0.488028C7.23157 0.358595 7.18016 0.234463 7.08863 0.14294C6.99711 0.0514172 6.87298 0 6.74355 0C6.61411 0 6.48998 0.0514172 6.39846 0.14294C6.30693 0.234463 6.25552 0.358595 6.25552 0.488028V1.95211H3.32735C2.68042 1.95289 2.06021 2.21022 1.60276 2.66767C1.14532 3.12512 0.887982 3.74533 0.887207 4.39225V17.081C0.887982 17.7279 1.14532 18.3481 1.60276 18.8056C2.06021 19.263 2.68042 19.5204 3.32735 19.5211H17.9682C18.6152 19.5206 19.2356 19.2634 19.6931 18.8059C20.1506 18.3484 20.4078 17.728 20.4083 17.081V4.39225C20.4078 3.74525 20.1506 3.12489 19.6931 2.66738C19.2356 2.20988 18.6152 1.95263 17.9682 1.95211ZM19.4323 17.081C19.4323 17.4693 19.278 17.8417 19.0035 18.1163C18.7289 18.3908 18.3565 18.5451 17.9682 18.5451H3.32735C2.93905 18.5451 2.56665 18.3908 2.29208 18.1163C2.01751 17.8417 1.86326 17.4693 1.86326 17.081V8.78451H19.4323V17.081ZM19.4323 7.80845H1.86326V4.39225C1.86326 3.58408 2.51722 2.92817 3.32735 2.92817H6.25552V4.39225C6.25552 4.52169 6.30693 4.64582 6.39846 4.73734C6.48998 4.82886 6.61411 4.88028 6.74355 4.88028C6.87298 4.88028 6.99711 4.82886 7.08863 4.73734C7.18016 4.64582 7.23157 4.52169 7.23157 4.39225V2.92817H14.064V4.39225C14.064 4.52169 14.1154 4.64582 14.2069 4.73734C14.2984 4.82886 14.4226 4.88028 14.552 4.88028C14.6814 4.88028 14.8056 4.82886 14.8971 4.73734C14.9886 4.64582 15.04 4.52169 15.04 4.39225V2.92817H17.9682C18.3565 2.92817 18.7289 3.08242 19.0035 3.35699C19.278 3.63156 19.4323 4.00395 19.4323 4.39225V7.80845Z" fill="#FFC107"/>
<circle cx="4.30321" cy="11.2246" r="0.488028" fill="#FFC107"/>
<circle cx="4.30309" cy="15.1289" r="0.488028" fill="#FFC107"/>
<circle cx="8.20727" cy="11.2246" r="0.488028" fill="#FFC107"/>
<circle cx="8.20727" cy="15.1289" r="0.488028" fill="#FFC107"/>
<circle cx="12.1114" cy="11.2246" r="0.488028" fill="#FFC107"/>
<circle cx="12.1114" cy="15.1289" r="0.488028" fill="#FFC107"/>
<circle cx="16.016" cy="11.2246" r="0.488028" fill="#FFC107"/>
<circle cx="16.016" cy="15.1289" r="0.488028" fill="#FFC107"/>
</svg>
