<svg width="26" height="23" viewBox="0 0 26 23" fill="none" xmlns="http://www.w3.org/2000/svg">
<path d="M4.39902 11.4939H3.90318L13.0064 20.6783L20.4822 13.1358H22.7834L13.0064 23L2.0088 11.9172C1.71214 11.6179 1.44939 11.2972 1.22054 10.9551C0.991687 10.6131 0.792502 10.2454 0.622983 9.85199H3.71247L7.31051 6.23469L13.0064 11.9685L17.0748 7.87659L19.0455 9.85199H23.5589C23.8302 9.41587 24.0378 8.95408 24.1819 8.46664C24.326 7.97921 24.398 7.47894 24.398 6.96585C24.398 6.22186 24.2624 5.52919 23.9912 4.88782C23.72 4.24645 23.3428 3.6906 22.8597 3.22027C22.3765 2.74993 21.8171 2.37794 21.1814 2.10429C20.5457 1.83064 19.8549 1.69382 19.109 1.69382C18.3971 1.69382 17.7656 1.80499 17.2147 2.02733C16.6637 2.24967 16.1552 2.54897 15.689 2.92524C15.2228 3.30151 14.7778 3.71626 14.354 4.16949C13.9302 4.62272 13.481 5.09733 13.0064 5.59332C12.5487 5.13154 12.1037 4.66548 11.6714 4.19515C11.2391 3.72481 10.7899 3.30151 10.3237 2.92524C9.85754 2.54897 9.34474 2.24112 8.78533 2.00167C8.22592 1.76223 7.5987 1.64251 6.90367 1.64251C6.17474 1.64251 5.49242 1.77933 4.85672 2.05298C4.22103 2.32663 3.66161 2.70718 3.17848 3.19461C2.69535 3.68205 2.31817 4.24645 2.04694 4.88782C1.77571 5.52919 1.63586 6.22186 1.62738 6.96585C1.62738 7.36777 1.674 7.78252 1.76724 8.2101H0.101711C0.0593317 8.00486 0.0339038 7.79962 0.0254279 7.59439C0.0169519 7.38915 0.00847596 7.18391 0 6.97867C0 6.01235 0.177995 5.10589 0.533985 4.25928C0.889976 3.41268 1.38158 2.67297 2.0088 2.04016C2.63602 1.40734 3.36919 0.911351 4.20831 0.552186C5.04743 0.193021 5.94588 0.00916237 6.90367 0.000610825C7.60717 0.000610825 8.23439 0.0818505 8.78533 0.24433C9.33627 0.406809 9.84482 0.62915 10.311 0.911351C10.7772 1.19355 11.2264 1.53989 11.6587 1.95036C12.091 2.36084 12.5402 2.80124 13.0064 3.27158C13.4725 2.79269 13.9175 2.35229 14.3413 1.95036C14.7651 1.54844 15.2143 1.20638 15.689 0.924178C16.1637 0.641977 16.6764 0.415361 17.2274 0.24433C17.7783 0.073299 18.4055 -0.00794072 19.109 0.000610825C20.0584 0.000610825 20.9526 0.180193 21.7917 0.539358C22.6308 0.898523 23.3597 1.39451 23.9785 2.02733C24.5972 2.66014 25.0888 3.39558 25.4533 4.23363C25.8178 5.07168 26 5.97387 26 6.94019C26 7.76969 25.8559 8.57354 25.5677 9.35173C25.2795 10.1299 24.8685 10.844 24.3345 11.4939H18.3589L17.0748 10.1855L13.0064 14.3031L7.31051 8.54361L4.39902 11.4939Z" fill="#FF7B7B" fill-opacity="0.7"/>
</svg>
