<svg width="15" height="15" viewBox="0 0 15 15" fill="none" xmlns="http://www.w3.org/2000/svg">
<path d="M9.49996 5.33341H9.08329V4.50008C9.08329 3.35008 8.14996 2.41675 6.99996 2.41675C5.84996 2.41675 4.91663 3.35008 4.91663 4.50008V5.33341H4.49996C4.04163 5.33341 3.66663 5.70841 3.66663 6.16675V10.3334C3.66663 10.7917 4.04163 11.1667 4.49996 11.1667H9.49996C9.95829 11.1667 10.3333 10.7917 10.3333 10.3334V6.16675C10.3333 5.70841 9.95829 5.33341 9.49996 5.33341ZM5.74996 4.50008C5.74996 3.80841 6.30829 3.25008 6.99996 3.25008C7.69163 3.25008 8.24996 3.80841 8.24996 4.50008V5.33341H5.74996V4.50008ZM9.49996 10.3334H4.49996V6.16675H9.49996V10.3334ZM6.99996 9.08341C7.45829 9.08341 7.83329 8.70841 7.83329 8.25008C7.83329 7.79175 7.45829 7.41675 6.99996 7.41675C6.54163 7.41675 6.16663 7.79175 6.16663 8.25008C6.16663 8.70841 6.54163 9.08341 6.99996 9.08341Z" fill="#333333"/>
</svg>
