<svg width="28" height="29" viewBox="0 0 28 29" fill="none" xmlns="http://www.w3.org/2000/svg">
<path d="M4.66669 21.7498C4.66669 20.468 5.15835 19.2386 6.03352 18.3322C6.90869 17.4257 8.09568 16.9165 9.33335 16.9165H18.6667C19.9044 16.9165 21.0913 17.4257 21.9665 18.3322C22.8417 19.2386 23.3334 20.468 23.3334 21.7498C23.3334 22.3908 23.0875 23.0055 22.6499 23.4587C22.2124 23.9119 21.6189 24.1665 21 24.1665H7.00002C6.38118 24.1665 5.78769 23.9119 5.3501 23.4587C4.91252 23.0055 4.66669 22.3908 4.66669 21.7498Z" stroke="#FF5722" stroke-width="2" stroke-linejoin="round"/>
<path d="M14 12.0833C15.933 12.0833 17.5 10.4603 17.5 8.45825C17.5 6.45622 15.933 4.83325 14 4.83325C12.067 4.83325 10.5 6.45622 10.5 8.45825C10.5 10.4603 12.067 12.0833 14 12.0833Z" stroke="#FF5722" stroke-width="2"/>
</svg>
