<svg width="23" height="23" viewBox="0 0 23 23" fill="none" xmlns="http://www.w3.org/2000/svg">
<path d="M17.8619 15.6688V10.2973C17.861 8.8676 17.3783 7.47992 16.4918 6.35825C15.6053 5.23657 14.3666 4.44634 12.9758 4.11509V3.64311C12.9758 3.2489 12.8192 2.87084 12.5405 2.59209C12.2617 2.31334 11.8837 2.15674 11.4895 2.15674C11.0953 2.15674 10.7172 2.31334 10.4384 2.59209C10.1597 2.87084 10.0031 3.2489 10.0031 3.64311V4.12084C8.61712 4.45585 7.38395 5.24696 6.50166 6.3671C5.61936 7.48724 5.13914 8.87141 5.13812 10.2973V15.6688L3.12274 17.6841V18.6152H19.8773V17.6841L17.8619 15.6688Z" stroke="#FF5722" stroke-linecap="round" stroke-linejoin="round"/>
<path d="M9.26037 18.6152C9.25604 18.9107 9.31049 19.204 9.42056 19.4783C9.53062 19.7525 9.69411 20.0021 9.9015 20.2125C10.1089 20.423 10.3561 20.5901 10.6286 20.7042C10.9012 20.8183 11.1937 20.877 11.4892 20.877C11.7847 20.877 12.0772 20.8183 12.3498 20.7042C12.6224 20.5901 12.8695 20.423 13.0769 20.2125C13.2843 20.0021 13.4478 19.7525 13.5579 19.4783C13.6679 19.204 13.7224 18.9107 13.7181 18.6152" stroke="#FF5722" stroke-linecap="round" stroke-linejoin="round"/>
</svg>
