<svg width="26" height="24" viewBox="0 0 26 24" fill="none" xmlns="http://www.w3.org/2000/svg">
<path d="M1 1H3.04878L3.92683 4.51219M3.92683 4.51219L6.85366 16.2195H22.0732L25 4.51219H3.92683Z" stroke="#FFC107" stroke-width="2" stroke-linecap="round" stroke-linejoin="round"/>
<path d="M6.85363 22.0732C7.8235 22.0732 8.60973 21.287 8.60973 20.3171C8.60973 19.3473 7.8235 18.561 6.85363 18.561C5.88377 18.561 5.09753 19.3473 5.09753 20.3171C5.09753 21.287 5.88377 22.0732 6.85363 22.0732Z" stroke="#FFC107" stroke-width="2" stroke-linecap="round" stroke-linejoin="round"/>
<path d="M22.0732 22.0732C23.043 22.0732 23.8293 21.287 23.8293 20.3171C23.8293 19.3473 23.043 18.561 22.0732 18.561C21.1033 18.561 20.3171 19.3473 20.3171 20.3171C20.3171 21.287 21.1033 22.0732 22.0732 22.0732Z" stroke="#FFC107" stroke-width="2" stroke-linecap="round" stroke-linejoin="round"/>
</svg>
