<svg width="27" height="27" viewBox="0 0 27 27" fill="none" xmlns="http://www.w3.org/2000/svg">
<path d="M4.5 23.625C3.88125 23.625 3.35138 23.4045 2.91038 22.9635C2.46938 22.5225 2.24925 21.993 2.25 21.375V9C2.25 8.38125 2.4705 7.85138 2.9115 7.41038C3.3525 6.96938 3.882 6.74925 4.5 6.75H9V4.5C9 3.88125 9.2205 3.35138 9.6615 2.91038C10.1025 2.46938 10.632 2.24925 11.25 2.25H15.75C16.3688 2.25 16.8986 2.4705 17.3396 2.9115C17.7806 3.3525 18.0008 3.882 18 4.5V6.75H22.5C23.1188 6.75 23.6486 6.9705 24.0896 7.4115C24.5306 7.8525 24.7508 8.382 24.75 9V21.375C24.75 21.9938 24.5295 22.5236 24.0885 22.9646C23.6475 23.4056 23.118 23.6258 22.5 23.625H4.5ZM4.5 21.375H22.5V9H4.5V21.375ZM11.25 6.75H15.75V4.5H11.25V6.75Z" fill="#2196F3"/>
</svg>
